<?xml version="1.0" standalone="no"?>
<!DOCTYPE svg PUBLIC "-//W3C//DTD SVG 20010904//EN"
 "http://www.w3.org/TR/2001/REC-SVG-20010904/DTD/svg10.dtd">
<svg version="1.0" xmlns="http://www.w3.org/2000/svg"
 width="1536.000000pt" height="1024.000000pt" viewBox="0 0 1536.000000 1024.000000"
 preserveAspectRatio="xMidYMid meet">
<metadata>
Created by potrace 1.16, written by Peter Selinger 2001-2019
</metadata>
<g transform="translate(0.000000,1024.000000) scale(0.100000,-0.100000)"
fill="#000000" stroke="none">
<path d="M0 5120 l0 -5120 7680 0 7680 0 0 5120 0 5120 -7680 0 -7680 0 0
-5120z m2920 1945 c341 -42 651 -180 907 -405 150 -130 288 -306 344 -435 22
-50 28 -56 74 -71 142 -47 294 -155 348 -247 29 -49 57 -139 56 -176 l-1 -26
-8 25 c-6 18 -8 20 -9 7 -1 -10 -5 -16 -10 -12 -5 3 -15 -12 -21 -32 -7 -21
-16 -42 -21 -47 -9 -10 -13 -11 -109 -20 -50 -5 -86 -11 -100 -16 -3 -1 -15
-1 -27 -1 -11 1 -24 -2 -27 -7 -3 -6 -42 -8 -88 -5 -83 4 -105 12 -159 57 -14
11 5 -9 43 -45 88 -85 147 -117 238 -128 39 -5 74 -12 77 -14 11 -12 -87 -22
-145 -15 -148 18 -281 129 -412 348 -28 46 -50 81 -50 77 0 -15 41 -99 80
-162 108 -178 250 -302 371 -326 l59 -12 -7 -70 c-4 -52 -3 -68 5 -63 7 4 12
2 12 -4 0 -6 5 -8 13 -4 9 6 8 4 -1 -8 -7 -9 -14 -32 -14 -50 0 -18 -5 -39
-11 -46 -5 -7 -7 -15 -4 -19 4 -3 1 -13 -6 -21 -9 -13 -9 -14 1 -8 6 4 12 3
12 -2 0 -6 -7 -12 -15 -16 -11 -4 -15 1 -15 17 0 12 -18 -30 -39 -94 -93 -275
-216 -466 -442 -684 -311 -300 -711 -448 -1168 -432 -192 7 -341 31 -495 82
-315 103 -618 326 -803 591 -43 62 -45 67 -17 44 17 -14 30 -28 28 -32 -7 -12
49 -69 62 -64 8 3 14 1 14 -4 0 -6 14 -10 31 -10 28 0 30 2 18 18 -7 9 36 -31
96 -89 177 -170 269 -231 525 -348 l25 -11 -25 6 c-14 3 -61 21 -104 40 -44
19 -81 32 -84 29 -12 -11 10 -34 40 -40 31 -7 48 -20 48 -38 0 -5 -10 -6 -22
-2 -18 4 -19 4 -8 -4 9 -5 22 -11 30 -13 8 -2 17 -6 20 -9 10 -12 137 -58 215
-78 188 -48 442 -71 595 -53 71 9 72 9 25 12 -27 1 -54 2 -58 1 -5 -1 -6 3 -2
9 3 5 21 10 38 10 18 0 39 5 47 10 12 8 9 10 -13 10 -16 0 -26 3 -24 8 3 4
-61 6 -141 4 -81 -2 -144 -1 -142 1 3 2 77 7 165 11 172 6 279 25 442 76 97
30 299 122 338 154 11 9 -19 -4 -68 -29 -48 -25 -98 -46 -112 -47 -14 -1 -25
-6 -25 -11 0 -4 -8 -3 -19 2 -10 6 -21 7 -25 3 -4 -3 -5 0 -1 8 4 11 -2 15
-20 15 -14 0 -25 -3 -25 -7 0 -3 -14 -11 -32 -17 -27 -9 -33 -9 -41 5 -8 13
-11 14 -25 2 -20 -17 -68 -17 -64 0 3 16 -15 16 -21 0 -3 -10 -7 -10 -18 -1
-12 9 -24 10 -52 1 -28 -9 -40 -9 -49 0 -7 7 -17 8 -29 2 -12 -7 -19 -5 -23 5
-4 11 -17 14 -50 11 -25 -2 -43 1 -40 5 4 8 -4 11 -26 11 -3 0 -16 -3 -30 -7
-19 -5 -21 -4 -10 4 15 11 -4 15 -67 14 -12 0 -21 3 -19 6 3 4 -7 11 -20 18
-18 8 -22 8 -17 0 3 -7 -3 -4 -14 6 -11 9 -23 14 -26 11 -4 -4 -9 1 -13 10 -3
9 -10 16 -16 16 -5 0 -7 -4 -4 -8 2 -4 -5 -9 -17 -9 -17 -2 -18 0 -7 7 14 8 6
9 -96 12 -15 0 -20 5 -17 18 4 14 -1 16 -27 12 -22 -3 -30 -1 -28 9 2 8 -3 13
-9 11 -7 -1 -13 4 -13 11 0 16 -41 17 -52 2 -4 -6 -8 -2 -8 8 0 10 -4 16 -9
13 -12 -8 -61 17 -61 31 0 6 -5 15 -12 19 -7 5 -8 3 -3 -6 6 -10 4 -12 -8 -7
-9 3 -18 1 -21 -6 -2 -7 -5 -2 -5 11 -1 12 -6 22 -12 22 -6 0 -9 -7 -6 -14 4
-10 1 -13 -9 -9 -13 5 -18 17 -15 37 1 5 -4 4 -12 -3 -12 -9 -16 -8 -21 5 -4
9 -12 14 -22 10 -8 -3 -13 -2 -9 3 4 8 -50 55 -65 56 -14 1 -50 31 -50 42 0 7
-5 13 -10 13 -6 0 -9 6 -8 13 2 6 -3 11 -9 9 -7 -1 -14 2 -14 8 -2 14 -5 23
-13 41 -5 11 2 36 17 65 13 27 27 63 31 79 4 17 9 39 12 50 4 17 3 18 -6 5 -9
-12 -10 -9 -6 15 25 131 12 279 -49 575 -37 178 -41 139 -5 -50 29 -153 38
-238 35 -341 -2 -74 -7 -95 -35 -152 -31 -61 -64 -90 -80 -69 -3 4 -16 6 -30
5 -75 -7 -252 -8 -256 -1 -3 4 -13 4 -23 -1 -10 -6 -28 -7 -40 -4 -17 4 -20 2
-16 -13 4 -11 -4 -1 -16 21 -12 22 -26 54 -30 70 -6 27 -7 28 -8 5 -1 -35 41
-122 75 -154 56 -51 154 -67 264 -42 24 5 24 5 -5 -19 -61 -50 -184 -58 -283
-19 -80 32 -120 63 -147 114 -11 20 -32 60 -48 89 -34 63 -80 204 -109 335
-31 135 -33 453 -5 586 19 89 80 286 103 332 18 36 17 51 -1 17 -11 -21 -75
-187 -90 -236 -3 -7 -8 -13 -13 -13 -5 0 -5 21 0 48 4 26 10 60 13 77 2 16 9
31 15 33 5 2 10 12 10 22 0 10 18 58 41 107 230 496 698 842 1259 932 149 24
333 26 500 6z m1367 -217 c38 -53 116 -95 198 -107 64 -8 61 -11 -25 -31 -134
-31 -180 -81 -226 -245 l-17 -60 -17 72 c-17 75 -35 108 -79 156 -36 40 -74
58 -161 78 -80 18 -79 20 15 38 126 23 197 97 221 229 7 42 14 79 14 82 1 3
12 -34 24 -82 14 -55 33 -103 53 -130z"/>
<path d="M3259 6471 c-137 -54 -257 -199 -275 -333 -6 -41 -4 -49 19 -72 14
-14 36 -26 47 -26 13 0 54 31 104 79 88 84 149 121 234 141 70 16 119 8 223
-40 84 -39 129 -50 129 -30 0 5 11 12 25 16 21 5 23 10 18 37 -12 67 -61 124
-154 183 -103 64 -268 85 -370 45z"/>
<path d="M1936 6070 c-166 -53 -296 -224 -296 -390 0 -55 33 -113 68 -118 33
-5 76 31 110 91 95 168 297 250 497 202 113 -27 145 -18 145 42 0 57 -110 139
-239 177 -75 22 -210 20 -285 -4z"/>
<path d="M3405 5744 c-115 -41 -219 -79 -230 -84 -47 -22 45 5 233 70 108 38
199 66 202 63 3 -2 5 -40 5 -83 0 -72 -2 -81 -31 -117 -102 -127 -342 -253
-653 -343 -239 -69 -338 -84 -561 -85 -179 0 -199 2 -242 22 -58 26 -83 69
-73 122 4 20 10 31 12 24 5 -14 54 -7 95 13 15 8 62 23 105 33 165 40 424 116
821 243 35 11 61 22 58 25 -2 2 -82 -20 -178 -51 -314 -100 -596 -177 -858
-236 -71 -16 -102 -32 -134 -70 -32 -38 -33 -70 -6 -173 75 -294 330 -544 655
-643 84 -26 103 -28 270 -28 138 0 196 4 250 17 320 80 551 296 659 619 58
171 72 390 36 551 -48 216 -101 230 -435 111z m-41 -824 c84 -15 166 -42 160
-52 -3 -5 0 -7 6 -6 16 4 20 -25 10 -65 -9 -29 -8 -30 5 -13 28 37 19 81 -22
116 -21 18 -29 28 -18 22 36 -18 66 -59 67 -90 1 -36 -28 -86 -44 -76 -6 4 -8
3 -5 -4 17 -26 -204 -182 -239 -168 -8 3 -12 2 -9 -4 6 -10 -81 -39 -180 -61
-79 -17 -304 -17 -378 -1 -32 8 -57 16 -54 18 2 3 25 0 51 -6 25 -5 86 -12
134 -15 72 -4 81 -3 52 6 -43 13 -74 39 -47 39 19 0 21 8 7 30 -8 12 -10 12
-10 -5 0 -17 -2 -17 -10 -5 -7 11 -5 19 7 28 9 6 12 12 5 12 -7 0 -12 9 -12
19 0 11 -6 21 -12 24 -10 3 -10 7 1 20 9 12 10 17 2 17 -7 0 -9 5 -5 11 4 7 8
21 9 33 1 11 3 25 4 30 0 5 7 3 15 -3 12 -10 13 -8 9 10 -4 14 -2 20 4 16 6
-4 16 0 23 8 7 8 18 15 24 15 6 0 4 -5 -4 -10 -8 -5 -10 -10 -5 -10 19 0 38
18 31 29 -4 6 0 11 11 11 10 0 26 9 36 20 19 23 43 26 50 8 4 -10 8 -10 15 1
10 13 28 21 60 23 6 1 12 5 12 9 0 5 -24 6 -52 3 -29 -2 -48 -2 -42 1 12 6
131 18 223 23 29 1 81 -2 115 -8z"/>
<path d="M1155 5525 c-10 -127 2 -265 32 -394 14 -58 27 -123 28 -144 4 -54
11 -55 24 -1 13 52 46 119 85 177 15 21 22 36 16 32 -7 -4 -7 2 0 20 6 17 6
24 0 20 -5 -3 -19 -1 -31 5 -17 9 -23 8 -34 -6 -11 -16 -12 -15 -10 9 2 18 -1
27 -11 27 -8 0 -13 3 -13 8 3 18 -2 33 -9 28 -4 -2 -14 16 -21 42 -20 73 -20
74 -30 68 -14 -9 -18 23 -14 117 2 48 2 87 -1 87 -2 0 -7 -43 -11 -95z"/>
</g>
</svg>
